# xmcd
# Track frame offsets:
# 150
# 25033
# 35739
# 46571
# 66475
# 81209
# 92296
# 110513
# 122621
# 143675
# 157705
#
# Disc length: 2268 seconds
# Revision: 0
# Processed by: cddbd v1.5.2PL0 Copyright (c) Steve Scherf et al.
# Submitted via: VisiTrax 2.10.2.252 - For more info visit www.synapsa.com
#
DISCID=7d08da0b
DTITLE=Hjalmar King - Let´s have some fun
DYEAR=2008
DGENRE=Blues
TTITLE0=It´s alright
TTITLE1=Tell me baby
TTITLE2=Hawaian boogie
TTITLE3=Crossroad blues
TTITLE4=Shake your mone maker
TTITLE5=Madison blues
TTITLE6=I want somebody
TTITLE7=Rävjala blues
TTITLE8=Mean minstreatin´mama
TTITLE9=Sunny train
TTITLE10=Key to the highway
EXTD=
EXTT0=
EXTT1=
EXTT2=
EXTT3=
EXTT4=
EXTT5=
EXTT6=
EXTT7=
EXTT8=
EXTT9=
EXTT10=
PLAYORDER=
